<?xml version="1.0" encoding="utf-8"?>
<!-- Svg Vector Icons : http://www.onlinewebfonts.com/icon -->
<!DOCTYPE svg PUBLIC "-//W3C//DTD SVG 1.1//EN" "http://www.w3.org/Graphics/SVG/1.1/DTD/svg11.dtd">
<svg version="1.1" xmlns="http://www.w3.org/2000/svg" xmlns:xlink="http://www.w3.org/1999/xlink" x="0px" y="0px" viewBox="0 0 1000 1000" enable-background="new 0 0 1000 1000" xml:space="preserve">
<metadata> Svg Vector Icons : http://www.onlinewebfonts.com/icon </metadata>
<g><path d="M532.2,298.1c-77.4,11.8-140.6,75.1-152.5,152.5c-19,124.2,86.4,229.6,210.6,210.6C667.7,649.3,731,586,742.8,508.7C761.8,384.4,656.4,279.1,532.2,298.1z"/><path d="M915.5,132.5H804.2l-50-103.4C748.6,17.4,736.8,10,723.8,10H398.7c-12.9,0-24.8,7.4-30.4,19.1l-50,103.4H255v-16.6c0-13.4-10.9-24.3-24.3-24.3H115.9c-13.4,0-24.3,10.9-24.3,24.3v16.6h-7.1C43.4,132.5,10,165.9,10,207v708.5c0,41.1,33.4,74.5,74.5,74.5h831c41.1,0,74.5-33.4,74.5-74.5V207C990,165.9,956.6,132.5,915.5,132.5z M173.3,265.2c-28.2,0-51-22.9-51-51c0-28.2,22.9-51,51-51c28.2,0,51,22.9,51,51C224.4,242.3,201.5,265.2,173.3,265.2z M819.9,540.3c-21.6,97.6-100.4,176.3-198,198c-193.6,42.9-362.4-125.8-319.4-319.4c21.6-97.6,100.4-176.3,198-198C694.2,178,862.8,346.7,819.9,540.3z"/></g>
</svg>